# xmcd
#
# Track frame offsets:
#	212
#	19035
#	38187
#	51587
#
# Disc length: 901 seconds
#
# Revision: 1
# Processed by: cddbd v1.5.1PL0 Copyright (c) Steve Scherf et al.
# Submitted via: audiograbber 1.83.01
#
DISCID=2f038304
DTITLE=Keziah Jones - Where 's Life (Maxi)
DYEAR=1992
DGENRE=Blues
TTITLE0=Where's Life
TTITLE1=At The End Of The Lords Prayer
TTITLE2=What We Don't Know
TTITLE3=Walkin Naked Thru' a Bluebell Field (Live)
EXTD=
EXTT0=
EXTT1=
EXTT2=
EXTT3=
PLAYORDER=
